<?xml version="1.0" encoding="utf-8"?>
<!-- Generator: Adobe Illustrator 26.3.1, SVG Export Plug-In . SVG Version: 6.00 Build 0)  -->
<svg version="1.1" id="Layer_1" xmlns="http://www.w3.org/2000/svg" xmlns:xlink="http://www.w3.org/1999/xlink" x="0px" y="0px"
	 viewBox="0 0 600 300" style="enable-background:new 0 0 600 300;" xml:space="preserve">
<style type="text/css">
	.st0{fill:#6D8F3A;}
	.st1{fill:#A7C445;}
	.st2{fill-rule:evenodd;clip-rule:evenodd;fill:#ED1C24;}
</style>
<g>
	<g>
		<path class="st0" d="M52.2,128c-0.2-1.5-0.3-3-0.3-4.5c0.3-15.4,12.6-28.1,28-28.8c7.8-0.3,14.9,2.4,20.3,7
			c1.4,1.2,3.5,0.8,4.4-0.8l9.1-15.7c0.8-1.4,0.3-3.2-1.1-4l-10.1-5.9c-1.4-0.8-3.2-0.3-4,1.1l-3.4,5.8c-4.4-1.5-9.1-2.3-13.9-2.3
			c-24.3,0-44,19.7-44,44c0,1.6,0.1,3.1,0.3,4.7c0.2,1.5,1.4,2.6,2.9,2.6h8.9C51.1,131.3,52.4,129.8,52.2,128z"/>
		<path class="st1" d="M122,116.7H95.5c-0.9,0-1.8-0.4-2.3-1.2c-2.9-4.1-7.9-6.6-13.4-6.1c-7.1,0.7-12.7,6.5-13.2,13.6
			c-0.5,8.5,6.2,15.6,14.6,15.6c4.9,0,9.2-2.4,11.9-6.1c0.6-0.8,1.4-1.3,2.4-1.3h10c2.1,0,3.5,2.1,2.7,4c-4.4,10.6-14.9,18-27,18
			c-7.3,0-13.9-2.6-19-7c-1.4-1.2-3.5-0.8-4.4,0.8l-9.1,15.7c-0.8,1.4-0.3,3.2,1.1,4l10.2,5.9c1.4,0.8,3.2,0.3,4-1.1l3.4-5.8
			c4.4,1.5,9.1,2.3,13.9,2.3c24.3,0,44-19.7,44-44c0-1.6-0.1-3.1-0.3-4.7C124.8,117.8,123.5,116.7,122,116.7z"/>
		<path class="st1" d="M222.7,137.6l-15.2,0c-0.6,0-1.2,0.3-1.5,0.8c-5.5,7.7-15.2,12.2-25.7,10.2c-10.1-1.9-18.1-10-20-20.1
			c-3-16.2,9.4-30.4,25-30.4c8.5,0,16,4.2,20.7,10.6c0.4,0.5,0.9,0.8,1.5,0.8c2.8,0,10.9,0,15.2,0c1.4,0,2.3-1.4,1.7-2.7
			c-7.2-16.9-25-28.1-45-25.4c-19.1,2.6-34.3,18.2-36.4,37.4c-2.8,25.7,17.2,47.5,42.4,47.4c17.6,0,32.6-10.7,39.1-25.9
			C225,139,224.1,137.6,222.7,137.6z"/>
		<path class="st1" d="M303.4,110.2c0-16.1-13.1-27.5-30.8-27.5l-34.8,0c-1,0-1.9,0.9-1.9,1.9l0.1,77.8c0,1,0.9,1.9,1.9,1.9l13.7,0
			c1,0,1.9-0.9,1.9-1.9l0-24.6l12.9,0l18.1,25.7c0.4,0.5,0.9,0.8,1.6,0.8l15.3,0c1.5,0,2.4-1.7,1.5-3l-18-25.5
			C296,131.9,303.4,122.3,303.4,110.2z M270.7,121.8l-17.3,0l0-23l17.3,0c8.7,0,14.6,4.5,14.6,11.5
			C285.3,117.3,279.4,121.8,270.7,121.8z"/>
		<path class="st1" d="M363.2,83.8c-0.3-0.7-1-1.2-1.8-1.2l-17,0c-0.8,0-1.5,0.5-1.8,1.2L311,161.6c-0.5,1.2,0.4,2.6,1.8,2.6l15.5,0
			c0.8,0,1.5-0.5,1.8-1.2l4.7-11.7l36.3,0l4.8,11.6c0.3,0.7,1,1.2,1.8,1.2l15.6,0c1.3,0,2.3-1.4,1.8-2.6L363.2,83.8z M340.8,136.6
			l12.1-29.8l12.1,29.8L340.8,136.6z"/>
		<path class="st1" d="M529.5,117.9l29-32.2c1.1-1.2,0.2-3.2-1.4-3.2l-16.1,0c-0.5,0-1.1,0.2-1.4,0.6l-32.4,36.8l0-35.5
			c0-1-0.8-1.9-1.9-1.9l-13.7,0c-1,0-1.9,0.8-1.9,1.9l0.1,77.8c0,1,0.8,1.9,1.9,1.9l13.7,0c1,0,1.9-0.9,1.9-1.9l0-20.9l10.2-10.9
			l24.5,32.9c0.4,0.5,0.9,0.8,1.5,0.8l16.5,0c1.6,0,2.4-1.8,1.5-3L529.5,117.9z"/>
		<path class="st1" d="M475.7,82.6l-13.8,0c-1,0-1.9,0.9-1.9,1.9l0,50.8l-38.8-51.9c-0.4-0.5-0.9-0.8-1.5-0.8l-14.6,0
			c-1,0-1.9,0.8-1.9,1.9l0.1,77.8c0,1,0.9,1.9,1.9,1.9l13.7,0c1,0,1.9-0.8,1.9-1.9l0-50.8l38.8,51.9c0.4,0.5,0.9,0.8,1.5,0.8l14.7,0
			c1,0,1.9-0.9,1.9-1.9l-0.1-77.8C477.6,83.4,476.7,82.6,475.7,82.6z"/>
	</g>
	<g>
		<polygon class="st2" points="357.9,216.3 369.6,216.3 363.5,226.7 352.1,226.7 		"/>
		<path d="M410.2,211.7l-6.8-15l-14.7,0v29.8L369.9,194l-6.6,11.6l12.3,21.2h13.1v0h10.9v-13.6l6.2,13.7h9l6.4-13.7v13.6H432v-29.9
			h-14.9L410.2,211.7z M435.4,226.7h27.5v-8.4h-16.4v-3.7h16.4v-7.7h-16.4v-2.1h16.4v-8h-27.5V226.7z M498.9,226.7h27.6v-8.4H510
			v-3.7h16.5v-7.7H510v-2.1h16.5v-8h-27.6V226.7z M464.8,204.8h10.4v21.9h11v-21.9h10.6v-8h-32V204.8z M560.7,196.7h-12.2l-7.5,8.2
			v-8.2h-11.5v29.9H541v-8.4l1.2-1.5l6,10H562l-12.2-17.9L560.7,196.7z"/>
	</g>
</g>
</svg>
